<svg xmlns="http://www.w3.org/2000/svg" fill="none">
  <symbol id="logo">
    <g clip-path="url(#a)">
      <path fill="url(#b)" d="M124.368 41.013c0-1.431-1.181-2.593-2.636-2.593-1.456 0-2.64 1.162-2.64 2.593 0 1.43 1.182 2.595 2.64 2.595 1.458 0 2.636-1.162 2.636-2.595Z"/>
      <path fill="#DA0F16" d="M126.543 41.013c0 1.43 1.181 2.592 2.639 2.592 1.459 0 2.637-1.161 2.637-2.592s-1.181-2.596-2.637-2.596c-1.455 0-2.639 1.162-2.639 2.596Z"/>
      <path fill="#373130" d="M57.13 24.994c0-.622.083-1.221.242-1.792.161-.57.392-1.11.687-1.61.297-.502.656-.96 1.069-1.368.415-.409.874-.761 1.383-1.05a6.879 6.879 0 0 1 3.457-.92c.635 0 1.23.079 1.816.24a7.053 7.053 0 0 1 1.637.68c.508.289.97.641 1.386 1.05.42.409.774.866 1.072 1.368.294.503.522 1.04.687 1.61.165.57.248 1.17.248 1.792 0 .622-.083 1.218-.248 1.791a6.588 6.588 0 0 1-1.759 2.956 6.791 6.791 0 0 1-3.023 1.73 7.044 7.044 0 0 1-3.639 0 6.806 6.806 0 0 1-3.018-1.73 6.939 6.939 0 0 1-1.068-1.354 6.551 6.551 0 0 1-.93-3.393Zm3.456-.009c0 .486.084.94.251 1.363.168.423.401.792.705 1.105.3.312.655.562 1.068.738.41.179.867.267 1.36.267a3.4 3.4 0 0 0 1.363-.267 3.262 3.262 0 0 0 1.776-1.843c.168-.423.252-.877.252-1.363 0-.485-.084-.934-.252-1.36a3.427 3.427 0 0 0-.701-1.113 3.366 3.366 0 0 0-1.075-.75 3.354 3.354 0 0 0-1.363-.272 3.285 3.285 0 0 0-2.428 1.022 3.358 3.358 0 0 0-.705 1.113c-.167.426-.251.88-.251 1.36ZM71.741 18.833c0-.117.04-.21.122-.281a.432.432 0 0 1 .297-.105h9.642c.107 0 .202.03.286.096.084.065.13.162.142.29v2.189a.512.512 0 0 1-.11.306.38.38 0 0 1-.318.145h-3.087v9.628c0 .105-.04.202-.115.287a.394.394 0 0 1-.306.127h-2.628a.413.413 0 0 1-.289-.119.38.38 0 0 1-.133-.295v-9.628h-3.081a.414.414 0 0 1-.297-.113c-.081-.077-.122-.188-.122-.335v-2.19l-.003-.002ZM83.783 18.832c0-.105.035-.195.104-.272.067-.077.165-.114.292-.114h2.648c.09 0 .182.034.283.105a.33.33 0 0 1 .147.282v4.69a.431.431 0 0 0 .237-.097c.093-.062.185-.147.283-.25.098-.102.19-.212.286-.334a9.26 9.26 0 0 0 .47-.662c.056-.09.096-.153.122-.187.312-.551.627-1.048.95-1.488.324-.44.685-.815 1.086-1.122.404-.31.87-.545 1.392-.71.526-.164 1.146-.246 1.863-.246.202 0 .303.107.303.326v2.35a.518.518 0 0 1-.101.25.283.283 0 0 1-.237.111c-.246 0-.485.072-.722.216a3.61 3.61 0 0 0-.679.545c-.22.222-.43.466-.632.736-.205.272-.39.534-.56.79-.17.255-.324.482-.462.686-.136.202-.252.35-.341.443l5.247 6.266a.4.4 0 0 1 .098.239c0 .088-.066.13-.2.13h-3.534a.573.573 0 0 1-.3-.088.77.77 0 0 1-.245-.235l-3.385-4.137c-.173.128-.35.204-.528.227a3.503 3.503 0 0 1-.413.034v3.81c0 .259-.142.386-.43.386h-2.643c-.266 0-.401-.127-.401-.386V18.832h.002ZM96.568 31.055v-6.493a.36.36 0 0 1 .112-.28.397.397 0 0 1 .283-.106h1.317l-2.033-5.315c-.02-.048-.034-.085-.049-.116a.2.2 0 0 1-.023-.088c0-.077.032-.131.098-.162a.491.491 0 0 1 .214-.049h6.168c.41 0 .8.054 1.164.168.364.11.699.264 1.002.463.306.199.578.431.826.704a4.515 4.515 0 0 1 1.011 1.885c.089.35.132.701.132 1.06a4.305 4.305 0 0 1-1.117 2.896 4.274 4.274 0 0 1-1.288.956c-.5.241-1.057.366-1.666.372h-2.712v4.188c0 .253-.136.377-.41.377h-2.66a.435.435 0 0 1-.286-.09c-.069-.063-.106-.16-.106-.287l.026-.08-.003-.003Zm6.722-8.35c0-.198-.04-.389-.115-.567a1.53 1.53 0 0 0-.324-.472 1.547 1.547 0 0 0-.493-.32 1.636 1.636 0 0 0-.636-.12h-1.368l1.129 2.956h.205c.239 0 .456-.037.652-.111a1.395 1.395 0 0 0 .835-.77c.075-.184.115-.383.115-.598v.002ZM108.168 18.824c0-.128.035-.224.107-.287a.419.419 0 0 1 .286-.09h2.659c.275 0 .41.125.41.377v4.188h2.712c.609.006 1.164.13 1.663.375a4.206 4.206 0 0 1 2.117 2.3 4.219 4.219 0 0 1 .156 2.609 4.39 4.39 0 0 1-.39 1 4.51 4.51 0 0 1-.624.882 4.159 4.159 0 0 1-.823.704 3.977 3.977 0 0 1-2.165.628h-6.169a.463.463 0 0 1-.216-.048c-.067-.032-.098-.086-.098-.162 0-.029.008-.06.023-.088.014-.029.028-.068.049-.117l2.03-5.315h-1.317a.395.395 0 0 1-.283-.105.37.37 0 0 1-.113-.28V18.9l-.026-.08.012.003Zm6.633 7.83a1.402 1.402 0 0 0-.326-.465 1.59 1.59 0 0 0-.508-.304 1.842 1.842 0 0 0-.653-.11h-.208l-1.129 2.958h1.372a1.586 1.586 0 0 0 1.129-.44 1.6 1.6 0 0 0 .323-.471 1.51 1.51 0 0 0 0-1.167Zm4.349 4.473c0 .258.133.386.396.386h2.631c.291 0 .439-.128.439-.387V18.834a.329.329 0 0 0-.154-.281.5.5 0 0 0-.285-.105h-2.631c-.133 0-.228.036-.295.113a.403.403 0 0 0-.098.273v12.294h-.003ZM124.085 18.833c0-.117.041-.21.122-.281a.434.434 0 0 1 .3-.105h9.639a.45.45 0 0 1 .286.096.395.395 0 0 1 .145.29v2.189a.499.499 0 0 1-.113.306.377.377 0 0 1-.318.145h-3.089v9.628a.414.414 0 0 1-.116.287.388.388 0 0 1-.303.127h-2.631a.408.408 0 0 1-.286-.119.384.384 0 0 1-.136-.295v-9.628h-3.078a.416.416 0 0 1-.3-.113c-.081-.077-.122-.188-.122-.335V18.833ZM135.339 24.994c0-.622.081-1.221.243-1.792.161-.57.392-1.11.687-1.61a6.695 6.695 0 0 1 2.452-2.419 6.882 6.882 0 0 1 3.456-.92c.633 0 1.231.08 1.817.242a7.048 7.048 0 0 1 1.637.678 6.724 6.724 0 0 1 3.142 4.03c.165.57.246 1.169.246 1.79 0 .623-.081 1.219-.246 1.792a6.78 6.78 0 0 1-.687 1.602c-.295.497-.65.948-1.069 1.354a6.79 6.79 0 0 1-3.023 1.73 7.032 7.032 0 0 1-3.639 0 6.887 6.887 0 0 1-1.634-.677 6.843 6.843 0 0 1-2.452-2.408 6.518 6.518 0 0 1-.687-1.6 6.54 6.54 0 0 1-.243-1.792Zm3.457-.009c0 .486.084.94.251 1.363a3.262 3.262 0 0 0 1.773 1.843c.413.179.866.267 1.36.267.494 0 .95-.088 1.366-.267a3.29 3.29 0 0 0 1.776-1.843c.168-.423.251-.877.251-1.363 0-.485-.083-.934-.251-1.36a3.382 3.382 0 0 0-.704-1.113 3.363 3.363 0 0 0-1.072-.75 3.378 3.378 0 0 0-1.366-.272 3.293 3.293 0 0 0-3.133 2.135c-.167.426-.251.88-.251 1.36ZM151.112 18.852a.43.43 0 0 1 .101-.295c.07-.074.168-.108.292-.108h8.889c.13 0 .231.037.303.114a.432.432 0 0 1 .107.31v2.183a.45.45 0 0 1-.107.286c-.072.091-.176.137-.315.137h-5.799v2.175h4.476c.113 0 .208.028.283.079.073.054.11.142.11.264v1.9a.355.355 0 0 1-.098.235c-.066.077-.162.114-.286.114h-4.485v2.246h6.016c.268 0 .401.133.401.403v2.217c0 .12-.04.216-.127.293a.447.447 0 0 1-.315.113h-9.059a.435.435 0 0 1-.286-.09c-.069-.063-.107-.16-.107-.287V18.858l.006-.006ZM65.016 34.934c.063.105.124.213.173.324.05.11.101.227.147.343l1.262 3.228 1.254-3.228c.028-.082.063-.173.106-.272.044-.103.09-.193.142-.279a.927.927 0 0 1 .188-.215.37.37 0 0 1 .242-.088h2.212c.107 0 .2.028.269.088.072.056.133.13.188.215.054.086.098.176.132.279.038.099.07.19.099.272l4.591 11.817c0 .029.003.054.012.08a.163.163 0 0 1 .014.07c0 .165-.113.248-.332.248h-2.882c-.24 0-.393-.111-.468-.336l-2.729-8.006a107.854 107.854 0 0 0-1.308 3.827l1.594 4.117c0 .029.006.054.014.08a.22.22 0 0 1 .015.07c0 .165-.11.248-.332.248h-6.024c-.139 0-.234-.026-.292-.074a.252.252 0 0 1-.086-.199c0-.04.002-.074.008-.096l1.617-4.143-1.302-3.827c-.245.667-.48 1.337-.705 2.001l-.667 2.002c-.222.67-.441 1.337-.667 2.002a97.134 97.134 0 0 1-.693 2.001.483.483 0 0 1-.49.335h-2.82c-.135 0-.233-.025-.29-.073a.261.261 0 0 1-.087-.2c0-.039.002-.073.011-.096l4.618-11.842c.029-.082.063-.173.106-.273.044-.102.09-.193.145-.278a.763.763 0 0 1 .188-.216c.069-.06.15-.088.24-.088h2.211c.18 0 .3.06.367.185l.009-.003ZM76.388 41.285c0-.621.08-1.22.242-1.791.162-.571.393-1.11.688-1.61a6.861 6.861 0 0 1 1.068-1.369 6.6 6.6 0 0 1 1.383-1.05 6.878 6.878 0 0 1 3.457-.92c.635 0 1.23.08 1.817.241a7.055 7.055 0 0 1 1.637.679c.508.29.97.641 1.389 1.05a6.757 6.757 0 0 1 1.756 2.979c.164.57.245 1.17.245 1.791 0 .622-.08 1.218-.245 1.789a6.809 6.809 0 0 1-.688 1.604 6.646 6.646 0 0 1-1.068 1.354A6.91 6.91 0 0 1 83.226 48c-.626 0-1.239-.08-1.822-.239a6.899 6.899 0 0 1-3.018-1.73 6.935 6.935 0 0 1-1.068-1.353 6.467 6.467 0 0 1-.688-1.604 6.545 6.545 0 0 1-.242-1.789Zm3.456-.008c0 .485.084.94.252 1.363.167.423.401.789.704 1.107.3.312.656.56 1.069.738.413.179.866.27 1.36.27.494 0 .95-.088 1.363-.27a3.261 3.261 0 0 0 1.779-1.845c.167-.423.251-.878.251-1.363 0-.486-.084-.934-.251-1.36a3.358 3.358 0 0 0-.705-1.113 3.248 3.248 0 0 0-1.074-.75 3.354 3.354 0 0 0-1.363-.272c-.494 0-.947.09-1.36.272a3.254 3.254 0 0 0-1.069.75 3.404 3.404 0 0 0-.704 1.113c-.168.426-.252.88-.252 1.36ZM92.025 47.35v-6.494c0-.119.038-.21.113-.28a.391.391 0 0 1 .283-.106h1.317l-2.03-5.315c-.02-.048-.035-.085-.052-.113a.204.204 0 0 1-.02-.088c0-.074.031-.13.098-.162a.495.495 0 0 1 .216-.048h6.165c.41 0 .8.054 1.164.164a3.964 3.964 0 0 1 1.825 1.167 4.435 4.435 0 0 1 1.014 1.883 4.3 4.3 0 0 1-.156 2.61 4.2 4.2 0 0 1-2.12 2.299 3.82 3.82 0 0 1-1.663.375h-2.712v4.187c0 .253-.135.378-.41.378h-2.66a.43.43 0 0 1-.285-.09c-.072-.063-.107-.16-.107-.288l.026-.08h-.006Zm6.72-8.35a1.41 1.41 0 0 0-.115-.568 1.483 1.483 0 0 0-.815-.792c-.19-.08-.401-.12-.635-.12H95.81l1.126 2.959h.208c.24 0 .457-.037.653-.11a1.54 1.54 0 0 0 .505-.305c.139-.13.249-.284.327-.465a1.52 1.52 0 0 0 .115-.6ZM103.807 35.144a.43.43 0 0 1 .101-.295.384.384 0 0 1 .292-.111h8.889c.13 0 .231.037.303.114a.436.436 0 0 1 .107.31v2.18a.45.45 0 0 1-.107.286c-.072.091-.176.137-.315.137h-5.799v2.175h4.474c.115 0 .208.028.286.079.072.051.109.14.109.264v1.9a.372.372 0 0 1-.098.238.366.366 0 0 1-.286.114h-4.485v2.243h6.016c.268 0 .404.136.404.406V47.4c0 .12-.043.216-.127.292a.447.447 0 0 1-.315.114h-9.059a.438.438 0 0 1-.286-.09c-.072-.063-.107-.16-.107-.288V35.147l.003-.003Z"/>
      <path fill="url(#c)" d="M24.41 0c-5.125 0-10.032 1.545-14.19 4.469C3.82 8.972 0 16.272 0 24c0 13.234 10.95 24 24.41 24s24.411-10.766 24.411-24-10.95-24-24.41-24Zm7.85 38.406c-8.09 0-14.65-6.445-14.653-14.4v-.017c-.003-4.26-3.518-7.712-7.85-7.712-4.33 0-7.825 3.436-7.845 7.68v.04c0-7.422 3.72-13.992 9.423-18.006a22.663 22.663 0 0 1 13.078-4.12c12.43 0 22.505 9.906 22.505 22.126 0 .253-.012.5-.02.75-.396 7.606-6.798 13.656-14.633 13.656l-.005.003Z"/>
      <path fill="url(#d)" d="M25.768 29.36a11.245 11.245 0 0 1-1.26-4.27l-.066-1.033c-.014-1.565-1.32-2.836-2.908-2.836-1.588 0-2.856 1.232-2.908 2.762l-.011.153c.037 7.365 6.145 13.348 13.645 13.348 2.93 0 5.64-.9 7.86-2.434.095-.065.188-.127.28-.196a11.867 11.867 0 0 1-4.204.764 11.767 11.767 0 0 1-10.428-6.258Z"/>
      <path fill="url(#e)" d="M29.666 26.002c0-.017.006-.034.006-.051 0-1.076-.887-1.951-1.984-1.951s-1.984.872-1.984 1.95c0 .128.05.41.052.43 1.037 4.718 5.305 8.253 10.414 8.253.306 0 .609-.017.91-.04-4.174-.403-7.431-3.864-7.431-8.072 0-.176.011-.349.026-.52h-.009Z"/>
      <path fill="#F4B629" d="M39.372 27.115c0-.736-.61-1.332-1.354-1.332-.745 0-1.355.596-1.355 1.332 0 .735.61 1.331 1.355 1.331s1.354-.596 1.354-1.331Z"/>
      <path fill="#DA0F16" d="M42.104 27.115c0-2.22-1.83-4.02-4.09-4.02-2.257 0-4.088 1.8-4.088 4.02 0 2.22 1.83 4.02 4.089 4.02 2.258 0 4.089-1.8 4.089-4.02Zm-6.206 0c0-1.147.95-2.082 2.117-2.082 1.166 0 2.117.934 2.117 2.082 0 1.147-.95 2.08-2.117 2.08s-2.117-.933-2.117-2.08Z"/>
      <path fill="#F4B629" d="M38.018 17.992c-3.405 0-6.53 1.829-8.155 4.773a.371.371 0 0 0 .153.508.384.384 0 0 0 .517-.15c1.493-2.703 4.36-4.381 7.485-4.381a8.565 8.565 0 0 1 6.517 2.984.385.385 0 0 0 .538.045.37.37 0 0 0 .046-.528 9.319 9.319 0 0 0-7.101-3.25Z"/>
      <path fill="#DA0F16" d="M27.547 21.976a.37.37 0 0 0 .17.502.383.383 0 0 0 .511-.168c1.866-3.67 5.617-5.95 9.79-5.95 2.027 0 4.005.548 5.723 1.587.18.108.416.054.526-.122a.373.373 0 0 0-.124-.517 11.813 11.813 0 0 0-6.125-1.698c-4.462 0-8.476 2.439-10.471 6.366Z"/>
      <path fill="#F4B629" d="M25.095 21.172a.374.374 0 0 0 .185.5.384.384 0 0 0 .508-.179c2.212-4.645 7.014-7.646 12.23-7.646 1.452 0 2.882.224 4.245.67a.383.383 0 0 0 .482-.239.375.375 0 0 0-.242-.474 14.502 14.502 0 0 0-4.485-.707c-5.51 0-10.584 3.172-12.92 8.08l-.003-.005Z"/>
      <path fill="#DA0F16" d="M23.203 19.62a.373.373 0 0 0 .165.504.38.38 0 0 0 .511-.161c2.74-5.227 8.158-8.476 14.136-8.476.78 0 1.562.057 2.327.165a.376.376 0 1 0 .11-.744c-.8-.116-1.62-.173-2.437-.173-6.264 0-11.941 3.402-14.812 8.881v.003Z"/>
      <path fill="#F4B629" d="M20.564 19.244a.374.374 0 0 0 .346.531.383.383 0 0 0 .347-.218c2.954-6.32 9.429-10.469 16.498-10.562a.377.377 0 0 0 .375-.38.378.378 0 0 0-.38-.37h-.007c-7.36.1-14.104 4.418-17.182 11h.003Z"/>
      <path fill="#DA0F16" d="M34.786 6.87a.376.376 0 0 0 .318-.428.381.381 0 0 0-.436-.312c-7.503 1.147-13.91 6.175-16.726 13.126a.374.374 0 0 0 .355.514.38.38 0 0 0 .355-.236c2.718-6.704 8.9-11.556 16.134-12.663Z"/>
      <path fill="#F4B629" d="M31.188 5.235a.374.374 0 0 0 .254-.468.38.38 0 0 0-.476-.25c-6.449 1.945-11.806 6.505-14.69 12.515a.373.373 0 0 0 .181.5.383.383 0 0 0 .508-.179c2.796-5.82 7.98-10.235 14.226-12.118h-.003Z"/>
      <path fill="#DA0F16" d="M26.917 4.262a.37.37 0 0 0 .18-.5.382.382 0 0 0-.51-.176c-5.318 2.501-9.696 6.74-12.324 11.933a.37.37 0 0 0 .17.503.38.38 0 0 0 .511-.167c2.553-5.043 6.804-9.16 11.97-11.59l.003-.003Z"/>
      <path fill="#F4B629" d="M21.933 4.276a.37.37 0 0 0 .095-.523.385.385 0 0 0-.531-.093 28.857 28.857 0 0 0-9.553 10.92.374.374 0 0 0 .34.539.382.382 0 0 0 .344-.21A28.087 28.087 0 0 1 21.93 4.273l.003.003Z"/>
      <path fill="#DA0F16" d="M16.33 5.261a.385.385 0 0 0-.54 0 30.888 30.888 0 0 0-6.37 9.006.374.374 0 0 0 .347.531.383.383 0 0 0 .346-.219 30.093 30.093 0 0 1 6.215-8.787.37.37 0 0 0 0-.53h.002Z"/>
      <path fill="#F4B629" d="M9.296 10.196a.385.385 0 0 0-.523.133A33.386 33.386 0 0 0 6.6 14.684a.375.375 0 0 0 .21.489.383.383 0 0 0 .497-.207 32.274 32.274 0 0 1 2.126-4.26.372.372 0 0 0-.136-.513v.003Z"/>
      <path fill="#DA0F16" d="M38.018 20.454c-3.734 0-6.772 2.987-6.772 6.658 0 .207.17.375.381.375.21 0 .381-.168.381-.375 0-3.26 2.697-5.909 6.01-5.909 3.312 0 6.01 2.652 6.01 5.909 0 .485-.061.965-.177 1.43-.667 2.638-3.067 4.481-5.833 4.481a.378.378 0 0 0-.382.375c0 .207.17.375.382.375 3.118 0 5.822-2.076 6.575-5.049.133-.522.2-1.064.2-1.61 0-3.67-3.038-6.657-6.772-6.657l-.003-.003Z"/>
    </g>
    <defs>
      <linearGradient id="b" x1="119.095" x2="124.368" y1="41.013" y2="41.013" gradientUnits="userSpaceOnUse">
        <stop stop-color="#077B92"/>
        <stop offset=".1" stop-color="#168698"/>
        <stop offset=".34" stop-color="#349CA5"/>
        <stop offset=".57" stop-color="#4AACAF"/>
        <stop offset=".79" stop-color="#57B5B5"/>
        <stop offset="1" stop-color="#5CB9B7"/>
      </linearGradient>
      <linearGradient id="c" x1="7.156" x2="41.074" y1="40.959" y2="6.458" gradientUnits="userSpaceOnUse">
        <stop stop-color="#2792A0"/>
        <stop offset="1" stop-color="#5CB9B7"/>
      </linearGradient>
      <linearGradient id="d" x1="18.612" x2="40.397" y1="29.352" y2="29.352" gradientUnits="userSpaceOnUse">
        <stop stop-color="#077B92"/>
        <stop offset=".02" stop-color="#0A7D93"/>
        <stop offset=".18" stop-color="#2792A0"/>
        <stop offset=".35" stop-color="#3EA3AA"/>
        <stop offset=".53" stop-color="#4FAFB1"/>
        <stop offset=".73" stop-color="#58B6B5"/>
        <stop offset="1" stop-color="#5CB9B7"/>
      </linearGradient>
      <linearGradient id="e" x1="25.707" x2="37.079" y1="29.315" y2="29.315" gradientUnits="userSpaceOnUse">
        <stop stop-color="#077B92"/>
        <stop offset=".02" stop-color="#0A7D93"/>
        <stop offset=".18" stop-color="#2792A0"/>
        <stop offset=".35" stop-color="#3EA3AA"/>
        <stop offset=".53" stop-color="#4FAFB1"/>
        <stop offset=".73" stop-color="#58B6B5"/>
        <stop offset="1" stop-color="#5CB9B7"/>
      </linearGradient>
      <clipPath id="a">
        <path fill="#fff" d="M0 0h161v48H0z"/>
      </clipPath>
    </defs>
  </symbol>
</svg>