<svg width="161" height="48" viewBox="0 0 161 48" fill="none" xmlns="http://www.w3.org/2000/svg">
<g clip-path="url(#clip0_710_912)">
<path d="M124.368 41.0126C124.368 39.5817 123.187 38.4204 121.732 38.4204C120.276 38.4204 119.092 39.5817 119.092 41.0126C119.092 42.4436 120.274 43.6077 121.732 43.6077C123.19 43.6077 124.368 42.4464 124.368 41.0126Z" fill="url(#paint0_linear_710_912)"/>
<path d="M126.543 41.0125C126.543 42.4435 127.724 43.6048 129.182 43.6048C130.641 43.6048 131.819 42.4435 131.819 41.0125C131.819 39.5816 130.638 38.4175 129.182 38.4175C127.727 38.4175 126.543 39.5787 126.543 41.0125Z" fill="#DA0F16"/>
<path d="M57.1292 24.9937C57.1292 24.372 57.2129 23.7729 57.3717 23.2022C57.5334 22.6315 57.7645 22.0921 58.059 21.5924C58.3565 21.0898 58.7145 20.6327 59.1275 20.2238C59.5433 19.815 60.0025 19.4629 60.5107 19.1733C61.019 18.8837 61.5619 18.6566 62.1452 18.4948C62.7286 18.3358 63.3321 18.2534 63.9674 18.2534C64.6027 18.2534 65.1976 18.3329 65.7839 18.4948C66.3701 18.6566 66.9159 18.8837 67.4212 19.1733C67.9295 19.4629 68.3915 19.815 68.8074 20.2238C69.2261 20.6327 69.5813 21.0898 69.8787 21.5924C70.1733 22.0949 70.4014 22.6315 70.566 23.2022C70.7306 23.7729 70.8144 24.372 70.8144 24.9937C70.8144 25.6155 70.7306 26.2118 70.566 26.7853C70.4014 27.3588 70.1733 27.8926 69.8787 28.3866C69.5813 28.8835 69.2261 29.3349 68.8074 29.7409C68.3886 30.1498 67.9266 30.499 67.4212 30.7943C66.913 31.0867 66.3672 31.3139 65.7839 31.47C65.1976 31.6262 64.5941 31.7085 63.9674 31.7085C63.3408 31.7085 62.7286 31.6262 62.1452 31.47C61.5619 31.311 61.019 31.0867 60.5107 30.7943C60.0025 30.5019 59.5433 30.1498 59.1275 29.7409C58.7145 29.3321 58.3565 28.8807 58.059 28.3866C57.7616 27.8898 57.5306 27.356 57.3717 26.7853C57.21 26.2146 57.1292 25.6155 57.1292 24.9937ZM60.5858 24.9852C60.5858 25.4707 60.6696 25.925 60.8371 26.3481C61.0046 26.7711 61.2385 27.1402 61.5417 27.4525C61.842 27.7648 62.1972 28.0147 62.6102 28.1907C63.0202 28.3696 63.4765 28.4576 63.9703 28.4576C64.4641 28.4576 64.9204 28.3696 65.3334 28.1907C65.7492 28.0118 66.1073 27.7648 66.4076 27.4525C66.7079 27.1402 66.9419 26.7711 67.1093 26.3481C67.2768 25.925 67.3606 25.4707 67.3606 24.9852C67.3606 24.4997 67.2768 24.0511 67.1093 23.6252C66.9419 23.1994 66.7079 22.8303 66.4076 22.5123C66.1073 22.1971 65.7463 21.9473 65.3334 21.7627C64.9204 21.581 64.4641 21.4901 63.9703 21.4901C63.4765 21.4901 63.0202 21.5782 62.6102 21.7627C62.1972 21.9444 61.842 22.1943 61.5417 22.5123C61.2385 22.8274 61.0046 23.1994 60.8371 23.6252C60.6696 24.0511 60.5858 24.5054 60.5858 24.9852Z" fill="#373130"/>
<path d="M71.7413 18.8327C71.7413 18.7163 71.7818 18.6226 71.8626 18.5516C71.9435 18.4806 72.0417 18.4465 72.1601 18.4465H81.8024C81.9092 18.4465 82.0045 18.4778 82.0883 18.5431C82.172 18.6084 82.2182 18.7049 82.2298 18.8327V21.0217C82.2298 21.1296 82.1922 21.229 82.12 21.3284C82.045 21.4249 81.9381 21.4732 81.8024 21.4732H78.7153V31.101C78.7153 31.206 78.6749 31.3026 78.5998 31.3877C78.5219 31.4729 78.4208 31.5155 78.2937 31.5155H75.6658C75.5619 31.5155 75.4666 31.4786 75.3771 31.3963C75.2875 31.3168 75.2442 31.2174 75.2442 31.101V21.4732H72.163C72.0446 21.4732 71.9464 21.4362 71.8655 21.3596C71.7847 21.2829 71.7442 21.1722 71.7442 21.0246V18.8355L71.7413 18.8327Z" fill="#373130"/>
<path d="M83.7834 18.8325C83.7834 18.7275 83.8181 18.6366 83.8874 18.56C83.9538 18.4833 84.052 18.4464 84.1791 18.4464H86.8272C86.9167 18.4464 87.0091 18.4805 87.1102 18.5514C87.2084 18.6224 87.2574 18.7161 87.2574 18.8325V23.5229C87.3239 23.5229 87.4018 23.4917 87.4942 23.4264C87.5867 23.3639 87.6791 23.2788 87.7772 23.1765C87.8754 23.0743 87.9678 22.9636 88.0631 22.8415C88.1584 22.7194 88.2451 22.603 88.3259 22.4894C88.4068 22.373 88.4761 22.2708 88.5338 22.18C88.5887 22.0891 88.6291 22.0267 88.6551 21.9926C88.967 21.4418 89.2818 20.9449 89.6052 20.5048C89.9287 20.0647 90.2896 19.69 90.691 19.3833C91.0953 19.0739 91.5603 18.8382 92.0829 18.6735C92.6085 18.5088 93.2294 18.4265 93.9456 18.4265C94.1477 18.4265 94.2488 18.5344 94.2488 18.753V21.1039C94.2372 21.1976 94.2026 21.2799 94.1477 21.3538C94.09 21.4276 94.012 21.4645 93.9109 21.4645C93.6655 21.4645 93.4258 21.5355 93.189 21.6803C92.9522 21.8251 92.7269 22.0068 92.5103 22.2254C92.2909 22.4469 92.0801 22.691 91.8779 22.9608C91.6729 23.2333 91.4881 23.4945 91.3177 23.7501C91.1473 24.0056 90.9942 24.2327 90.8556 24.4372C90.7199 24.6387 90.6044 24.7864 90.5149 24.8801L95.762 31.1463C95.8255 31.2286 95.8602 31.3081 95.8602 31.3848C95.8602 31.4728 95.7938 31.5154 95.6609 31.5154H92.1263C92.0252 31.5154 91.9241 31.487 91.8259 31.4273C91.7277 31.3677 91.6469 31.2911 91.5805 31.1917L88.196 27.0549C88.0227 27.1827 87.8466 27.2594 87.6675 27.2821C87.4885 27.3048 87.3527 27.3161 87.2546 27.3161V31.1264C87.2546 31.3848 87.1131 31.5125 86.8243 31.5125H84.182C83.9163 31.5125 83.7805 31.3848 83.7805 31.1264V18.8325H83.7834Z" fill="#373130"/>
<path d="M96.5677 31.0555V24.5622C96.5677 24.443 96.6052 24.3493 96.6803 24.2811C96.7554 24.2102 96.8507 24.1761 96.9633 24.1761H98.2801L96.2471 18.8611C96.2269 18.8128 96.2125 18.7759 96.198 18.7447C96.1836 18.7163 96.1749 18.685 96.1749 18.6566C96.1749 18.58 96.2067 18.526 96.2731 18.4948C96.3395 18.4636 96.4088 18.4465 96.4868 18.4465H102.655C103.065 18.4465 103.455 18.5005 103.819 18.614C104.183 18.7248 104.518 18.8781 104.821 19.0768C105.127 19.2756 105.399 19.5084 105.647 19.781C105.892 20.0535 106.097 20.3488 106.268 20.6668C106.438 20.9848 106.568 21.317 106.658 21.6662C106.747 22.0154 106.79 22.3675 106.79 22.7253C106.79 23.2533 106.692 23.7701 106.502 24.2755C106.305 24.778 106.031 25.2294 105.673 25.6213C105.315 26.0131 104.884 26.3339 104.385 26.5781C103.885 26.8194 103.328 26.9443 102.719 26.95H100.007V31.1379C100.007 31.3906 99.8713 31.5155 99.597 31.5155H96.9373C96.8189 31.5155 96.7236 31.4843 96.6514 31.4246C96.5821 31.3622 96.5446 31.2657 96.5446 31.1379L96.5706 31.0584L96.5677 31.0555ZM103.29 22.7054C103.29 22.5066 103.25 22.3164 103.175 22.1375C103.094 21.9587 102.99 21.8025 102.851 21.6662C102.713 21.5328 102.551 21.4249 102.358 21.3454C102.167 21.2659 101.956 21.2261 101.722 21.2261H100.354L101.483 24.1818H101.688C101.927 24.1818 102.144 24.1449 102.34 24.071C102.537 23.9972 102.704 23.895 102.846 23.7672C102.987 23.6366 103.094 23.4833 103.175 23.3016C103.25 23.1171 103.29 22.9183 103.29 22.7025V22.7054Z" fill="#373130"/>
<path d="M108.168 18.8242C108.168 18.6964 108.203 18.5999 108.275 18.5374C108.347 18.4749 108.442 18.4465 108.561 18.4465H111.22C111.495 18.4465 111.63 18.5715 111.63 18.8242V23.012H114.342C114.951 23.0177 115.506 23.1426 116.005 23.3868C116.505 23.6281 116.935 23.949 117.293 24.3408C117.651 24.7326 117.929 25.184 118.122 25.6866C118.319 26.1919 118.414 26.7058 118.414 27.2368C118.414 27.5945 118.37 27.9466 118.278 28.2958C118.189 28.645 118.059 28.9772 117.888 29.2952C117.718 29.6104 117.51 29.9057 117.264 30.1782C117.019 30.4508 116.745 30.6836 116.441 30.8824C116.135 31.0783 115.803 31.2316 115.436 31.3423C115.073 31.4559 114.686 31.5098 114.276 31.5098H108.107C108.029 31.5098 107.957 31.4956 107.891 31.4616C107.824 31.4303 107.793 31.3764 107.793 31.2997C107.793 31.2713 107.801 31.2401 107.816 31.2117C107.83 31.1833 107.844 31.1436 107.865 31.0953L109.895 25.7803H108.578C108.465 25.7803 108.37 25.7462 108.295 25.6752C108.22 25.6042 108.182 25.5105 108.182 25.3941V18.9008L108.156 18.8213L108.168 18.8242ZM114.801 26.6547C114.72 26.473 114.613 26.3169 114.475 26.1891C114.333 26.0613 114.163 25.9591 113.967 25.8853C113.77 25.8115 113.554 25.7746 113.314 25.7746H113.106L111.977 28.7331H113.349C113.58 28.7331 113.793 28.6933 113.984 28.6138C114.175 28.5343 114.339 28.4264 114.478 28.293C114.613 28.1567 114.72 28.0005 114.801 27.8217C114.876 27.6428 114.917 27.4526 114.917 27.2538C114.917 27.038 114.879 26.8365 114.801 26.6547ZM119.15 31.1265C119.15 31.3849 119.283 31.5127 119.546 31.5127H122.177C122.468 31.5127 122.616 31.3849 122.616 31.1265V18.8327C122.616 18.7163 122.564 18.6226 122.462 18.5516C122.361 18.4806 122.266 18.4465 122.177 18.4465H119.546C119.413 18.4465 119.318 18.4834 119.251 18.5601C119.185 18.6368 119.153 18.7276 119.153 18.8327V31.1265H119.15Z" fill="#373130"/>
<path d="M124.085 18.8327C124.085 18.7163 124.126 18.6226 124.207 18.5516C124.288 18.4806 124.386 18.4465 124.507 18.4465H134.146C134.253 18.4465 134.349 18.4778 134.432 18.5431C134.516 18.6084 134.565 18.7049 134.577 18.8327V21.0217C134.577 21.1296 134.539 21.229 134.464 21.3284C134.389 21.4249 134.285 21.4732 134.146 21.4732H131.057V31.101C131.057 31.206 131.019 31.3026 130.941 31.3877C130.866 31.4729 130.762 31.5155 130.638 31.5155H128.007C127.906 31.5155 127.808 31.4786 127.721 31.3963C127.632 31.3168 127.585 31.2174 127.585 31.101V21.4732H124.507C124.386 21.4732 124.288 21.4362 124.207 21.3596C124.126 21.2829 124.085 21.1722 124.085 21.0246V18.8355V18.8327Z" fill="#373130"/>
<path d="M135.339 24.9937C135.339 24.372 135.42 23.7729 135.582 23.2022C135.743 22.6315 135.974 22.0921 136.269 21.5924C136.566 21.0898 136.922 20.6327 137.337 20.2238C137.753 19.815 138.212 19.4629 138.721 19.1733C139.229 18.8837 139.772 18.6566 140.355 18.4948C140.936 18.3358 141.545 18.2534 142.177 18.2534C142.81 18.2534 143.408 18.3329 143.994 18.4948C144.58 18.6566 145.126 18.8837 145.631 19.1733C146.139 19.4629 146.601 19.815 147.017 20.2238C147.436 20.6327 147.791 21.0898 148.086 21.5924C148.383 22.0949 148.611 22.6315 148.773 23.2022C148.938 23.7729 149.019 24.372 149.019 24.9937C149.019 25.6155 148.938 26.2118 148.773 26.7853C148.608 27.3588 148.38 27.8926 148.086 28.3866C147.791 28.8835 147.436 29.3349 147.017 29.7409C146.601 30.1498 146.137 30.499 145.631 30.7943C145.123 31.0867 144.577 31.3139 143.994 31.47C143.408 31.6262 142.804 31.7085 142.177 31.7085C141.551 31.7085 140.936 31.6262 140.355 31.47C139.772 31.311 139.229 31.0867 138.721 30.7943C138.212 30.5019 137.75 30.1498 137.337 29.7409C136.922 29.3321 136.566 28.8807 136.269 28.3866C135.972 27.8898 135.741 27.356 135.582 26.7853C135.42 26.2146 135.339 25.6155 135.339 24.9937ZM138.796 24.9852C138.796 25.4707 138.88 25.925 139.047 26.3481C139.215 26.7711 139.448 27.1402 139.749 27.4525C140.052 27.7648 140.407 28.0147 140.82 28.1907C141.233 28.3696 141.686 28.4576 142.18 28.4576C142.674 28.4576 143.13 28.3696 143.546 28.1907C143.959 28.0118 144.317 27.7648 144.618 27.4525C144.921 27.1402 145.155 26.7711 145.322 26.3481C145.49 25.925 145.573 25.4707 145.573 24.9852C145.573 24.4997 145.49 24.0511 145.322 23.6252C145.155 23.1994 144.921 22.8303 144.618 22.5123C144.317 22.1971 143.959 21.9473 143.546 21.7627C143.13 21.581 142.674 21.4901 142.18 21.4901C141.686 21.4901 141.233 21.5782 140.82 21.7627C140.407 21.9473 140.052 22.1943 139.749 22.5123C139.448 22.8274 139.215 23.1994 139.047 23.6252C138.88 24.0511 138.796 24.5054 138.796 24.9852Z" fill="#373130"/>
<path d="M151.112 18.8524C151.112 18.7303 151.147 18.6309 151.213 18.5571C151.283 18.4833 151.381 18.4492 151.505 18.4492H160.394C160.524 18.4492 160.625 18.4861 160.697 18.5628C160.769 18.6394 160.804 18.7417 160.804 18.8723V21.0556C160.804 21.1578 160.769 21.2515 160.697 21.3424C160.625 21.4332 160.521 21.4787 160.382 21.4787H154.583V23.6535H159.059C159.172 23.6535 159.267 23.6819 159.342 23.733C159.415 23.787 159.452 23.875 159.452 23.9971V25.8965C159.452 25.9789 159.42 26.0555 159.354 26.1322C159.288 26.2088 159.192 26.2457 159.068 26.2457H154.583V28.4916H160.599C160.867 28.4916 161 28.625 161 28.8947V31.1122C161 31.2314 160.96 31.328 160.873 31.4046C160.789 31.4813 160.685 31.5182 160.558 31.5182H151.499C151.381 31.5182 151.285 31.487 151.213 31.4273C151.144 31.3649 151.106 31.2683 151.106 31.1406V18.8581L151.112 18.8524Z" fill="#373130"/>
<path d="M65.0157 34.934C65.0792 35.039 65.1399 35.1469 65.189 35.2576C65.2381 35.3684 65.29 35.4848 65.3362 35.6012L66.5982 38.8294L67.8515 35.6012C67.8804 35.5189 67.915 35.428 67.9584 35.3286C68.0017 35.2264 68.0479 35.1356 68.0999 35.0504C68.1547 34.9652 68.2183 34.8914 68.2876 34.8346C68.3598 34.775 68.4406 34.7466 68.5301 34.7466H70.7422C70.849 34.7466 70.9414 34.775 71.0107 34.8346C71.0829 34.8914 71.1436 34.9652 71.1985 35.0504C71.2533 35.1356 71.2966 35.2264 71.3313 35.3286C71.3688 35.428 71.4006 35.5189 71.4295 35.6012L76.0211 47.4181C76.0211 47.4465 76.024 47.472 76.0326 47.4976C76.0442 47.5231 76.047 47.5458 76.047 47.5685C76.047 47.7332 75.9344 47.8156 75.715 47.8156H72.8329C72.5933 47.8156 72.4402 47.7048 72.3651 47.4805L69.6362 39.4739C69.4051 40.1127 69.1799 40.7516 68.9633 41.3875C68.7467 42.0235 68.5359 42.6624 68.328 43.3012L69.9221 47.4181C69.9221 47.4465 69.9278 47.472 69.9365 47.4976C69.9452 47.5231 69.9509 47.5458 69.9509 47.5685C69.9509 47.7332 69.8412 47.8156 69.6188 47.8156H63.5949C63.4563 47.8156 63.361 47.79 63.3032 47.7417C63.2455 47.6906 63.2166 47.6253 63.2166 47.543C63.2166 47.5032 63.2195 47.4692 63.2253 47.4465L64.8424 43.304L63.54 39.4767C63.2946 40.144 63.0607 40.814 62.8354 41.4784C62.6131 42.1428 62.3907 42.81 62.1683 43.48C61.946 44.1501 61.7265 44.8173 61.5013 45.4817C61.2789 46.1461 61.0479 46.8161 60.8082 47.4834C60.7244 47.7048 60.5598 47.8184 60.3173 47.8184H57.4988C57.3631 47.8184 57.2649 47.7928 57.2071 47.7446C57.1522 47.6935 57.1205 47.6282 57.1205 47.5458C57.1205 47.5061 57.1234 47.472 57.132 47.4493L61.7496 35.6069C61.7785 35.5245 61.8131 35.4337 61.8565 35.3343C61.8998 35.2321 61.946 35.1412 62.0008 35.0561C62.0528 34.9709 62.1135 34.8971 62.1886 34.8403C62.2579 34.7807 62.3387 34.7523 62.4282 34.7523H64.6403C64.8193 34.7523 64.9406 34.8119 65.007 34.9368L65.0157 34.934Z" fill="#373130"/>
<path d="M76.3878 41.2853C76.3878 40.6635 76.4687 40.0644 76.6304 39.4937C76.7921 38.923 77.0231 38.3836 77.3177 37.8839C77.6151 37.3813 77.9732 36.927 78.3862 36.5153C78.802 36.1037 79.2612 35.7544 79.7694 35.4648C80.2777 35.1752 80.8206 34.9481 81.4039 34.7863C81.9872 34.6273 82.5908 34.5449 83.2261 34.5449C83.8614 34.5449 84.4563 34.6244 85.0425 34.7863C85.6287 34.9481 86.1745 35.1752 86.6799 35.4648C87.1882 35.7544 87.6502 36.1065 88.0689 36.5153C88.4848 36.927 88.84 37.3813 89.1374 37.8839C89.432 38.3864 89.663 38.923 89.8247 39.4937C89.9893 40.0644 90.0702 40.6635 90.0702 41.2853C90.0702 41.907 89.9893 42.5033 89.8247 43.074C89.6601 43.6475 89.432 44.1813 89.1374 44.6781C88.8429 45.175 88.4848 45.6236 88.0689 46.0324C87.6502 46.4413 87.1882 46.7905 86.6799 47.083C86.1716 47.3754 85.6259 47.6025 85.0425 47.7615C84.4563 47.9205 83.8528 48 83.2261 48C82.5995 48 81.9872 47.9205 81.4039 47.7615C80.8206 47.6054 80.2777 47.3782 79.7694 47.083C79.2612 46.7905 78.802 46.4385 78.3862 46.0324C77.9732 45.6236 77.6151 45.1722 77.3177 44.6781C77.0202 44.1813 76.7892 43.6475 76.6304 43.074C76.4687 42.5033 76.3878 41.9042 76.3878 41.2853ZM79.8445 41.2767C79.8445 41.7622 79.9282 42.2165 80.0957 42.6396C80.2632 43.0626 80.4971 43.4289 80.8004 43.7469C81.1007 44.0592 81.4559 44.3062 81.8688 44.4851C82.2818 44.6639 82.7352 44.7548 83.229 44.7548C83.7228 44.7548 84.1791 44.6668 84.592 44.4851C85.0079 44.3062 85.366 44.0592 85.6663 43.7469C85.9666 43.4317 86.2034 43.0654 86.3709 42.6396C86.5384 42.2165 86.6221 41.7622 86.6221 41.2767C86.6221 40.7912 86.5384 40.3426 86.3709 39.9167C86.2034 39.4909 85.9695 39.1189 85.6663 38.8038C85.366 38.4858 85.0079 38.2359 84.592 38.0542C84.1791 37.8725 83.7228 37.7816 83.229 37.7816C82.7352 37.7816 82.2818 37.8725 81.8688 38.0542C81.4559 38.2359 81.1007 38.4858 80.8004 38.8038C80.4971 39.1189 80.2661 39.4909 80.0957 39.9167C79.9282 40.3426 79.8445 40.7969 79.8445 41.2767Z" fill="#373130"/>
<path d="M92.0252 47.3498V40.8565C92.0252 40.7373 92.0627 40.6464 92.1378 40.5754C92.21 40.5044 92.3082 40.4704 92.4208 40.4704H93.7377L91.7075 35.1553C91.6873 35.1071 91.6729 35.0702 91.6556 35.0418C91.6411 35.0105 91.6353 34.9821 91.6353 34.9538C91.6353 34.8799 91.6671 34.8232 91.7335 34.7919C91.7999 34.7607 91.8693 34.7437 91.9501 34.7437H98.1155C98.5256 34.7437 98.9155 34.7976 99.2793 34.9083C99.6432 35.0191 99.9782 35.1752 100.281 35.3711C100.585 35.567 100.859 35.8027 101.104 36.0752C101.35 36.3478 101.555 36.6431 101.728 36.9582C101.899 37.2762 102.028 37.6084 102.118 37.9577C102.208 38.3069 102.251 38.6589 102.251 39.0167C102.251 39.5448 102.156 40.0587 101.962 40.5669C101.769 41.0723 101.491 41.5209 101.133 41.9127C100.775 42.3045 100.345 42.6225 99.8424 42.8667C99.3428 43.1109 98.7884 43.2358 98.1791 43.2415H95.4674V47.4293C95.4674 47.682 95.3317 47.8069 95.0574 47.8069H92.3977C92.2764 47.8069 92.184 47.7757 92.1118 47.7161C92.0396 47.6536 92.005 47.5571 92.005 47.4293L92.031 47.3498H92.0252ZM98.7451 38.9997C98.7451 38.8009 98.7075 38.6107 98.6296 38.4318C98.5516 38.2529 98.4448 38.0968 98.3061 37.9605C98.1675 37.8242 98.0058 37.7192 97.8152 37.6397C97.6246 37.5602 97.4138 37.5204 97.1799 37.5204H95.8111L96.9373 40.4789H97.1452C97.3849 40.4789 97.6015 40.442 97.7979 40.3682C97.9943 40.2943 98.1646 40.1921 98.3032 40.0644C98.4419 39.9338 98.5516 39.7804 98.6296 39.5987C98.7075 39.4142 98.7451 39.2154 98.7451 38.9997Z" fill="#373130"/>
<path d="M103.807 35.144C103.807 35.022 103.842 34.9226 103.908 34.8488C103.978 34.7749 104.076 34.738 104.2 34.738H113.089C113.219 34.738 113.32 34.7749 113.392 34.8516C113.464 34.9283 113.499 35.0333 113.499 35.1611V37.3416C113.499 37.4438 113.464 37.5375 113.392 37.6284C113.32 37.7192 113.216 37.7647 113.077 37.7647H107.278V39.9395H111.752C111.867 39.9395 111.96 39.9679 112.038 40.019C112.11 40.0701 112.147 40.1581 112.147 40.2831V42.1825C112.147 42.2648 112.113 42.3443 112.049 42.421C111.983 42.4948 111.887 42.5346 111.763 42.5346H107.278V44.7776H113.294C113.562 44.7776 113.698 44.9138 113.698 45.1836V47.401C113.698 47.5202 113.655 47.6168 113.571 47.6934C113.487 47.7701 113.383 47.807 113.256 47.807H104.197C104.079 47.807 103.984 47.7758 103.911 47.7162C103.839 47.6537 103.804 47.5572 103.804 47.4294V35.1469L103.807 35.144Z" fill="#373130"/>
<path d="M24.4105 0C19.2847 0 14.3783 1.54454 10.2199 4.46895C3.82054 8.97196 0 16.2716 0 24C0 37.2336 10.9505 48 24.4105 48C37.8705 48 48.821 37.2336 48.821 24C48.821 10.7664 37.8705 0 24.4105 0ZM32.2595 38.4062C24.1708 38.4062 17.6097 31.9612 17.6068 24.0057C17.6068 24.0028 17.6068 24 17.6068 23.9972C17.6068 23.9943 17.6068 23.9915 17.6068 23.9886C17.604 19.7298 14.0895 16.2773 9.75784 16.2773C5.42616 16.2773 1.93193 19.7128 1.91172 23.9574C1.91172 23.9574 1.91172 23.983 1.91172 23.9972C1.91172 16.5754 5.63119 10.0054 11.3346 5.99077C15.0194 3.39856 19.5359 1.87105 24.4134 1.87105C36.8424 1.87105 46.9179 11.7771 46.9179 23.9972C46.9179 24.2499 46.9063 24.4969 46.8977 24.7467C46.5021 32.353 40.0998 38.4034 32.2653 38.4034L32.2595 38.4062Z" fill="url(#paint1_linear_710_912)"/>
<path d="M25.7677 29.3605C25.0833 28.0602 24.6415 26.6178 24.5087 25.0903L24.4422 24.0568C24.4278 22.4924 23.1225 21.2205 21.5342 21.2205C19.946 21.2205 18.6782 22.4527 18.6262 23.983L18.6147 24.1363C18.6522 31.5013 24.7599 37.4836 32.2595 37.4836C35.1906 37.4836 37.8993 36.5835 40.12 35.0503C40.2153 34.985 40.3078 34.9226 40.4002 34.8544C39.0949 35.3485 37.6741 35.6182 36.1955 35.6182C31.6617 35.6182 27.7199 33.0742 25.7677 29.3605Z" fill="url(#paint2_linear_710_912)"/>
<path d="M29.6663 26.0017C29.6663 25.9846 29.672 25.9676 29.672 25.9506C29.672 24.8745 28.7855 24 27.6881 24C26.5908 24 25.7042 24.8716 25.7042 25.9506C25.7042 26.0783 25.7533 26.3594 25.7562 26.3793C26.7929 31.0981 31.0611 34.6329 36.1696 34.6329C36.4757 34.6329 36.7789 34.6159 37.0792 34.5932C32.9064 34.19 29.6489 30.729 29.6489 26.5212C29.6489 26.3452 29.6605 26.172 29.6749 26.0017C29.6749 26.0017 29.6692 26.0017 29.6663 26.0017Z" fill="url(#paint3_linear_710_912)"/>
<path d="M39.3721 27.1146C39.3721 26.3792 38.7628 25.783 38.0178 25.783C37.2727 25.783 36.6634 26.3792 36.6634 27.1146C36.6634 27.8499 37.2727 28.4462 38.0178 28.4462C38.7628 28.4462 39.3721 27.8499 39.3721 27.1146Z" fill="#F4B629"/>
<path d="M42.1039 27.1146C42.1039 24.8943 40.2731 23.0942 38.0148 23.0942C35.7566 23.0942 33.9257 24.8943 33.9257 27.1146C33.9257 29.3349 35.7566 31.1349 38.0148 31.1349C40.2731 31.1349 42.1039 29.3349 42.1039 27.1146ZM35.8981 27.1146C35.8981 25.9675 36.8482 25.0334 38.0148 25.0334C39.1815 25.0334 40.1316 25.9675 40.1316 27.1146C40.1316 28.2616 39.1815 29.1957 38.0148 29.1957C36.8482 29.1957 35.8981 28.2616 35.8981 27.1146Z" fill="#DA0F16"/>
<path d="M38.0177 17.9922C34.613 17.9922 31.4884 19.8207 29.8626 22.7649C29.7615 22.9466 29.8308 23.1738 30.0157 23.2732C30.0734 23.3044 30.137 23.3186 30.1976 23.3186C30.3333 23.3186 30.4633 23.2476 30.5326 23.1227C32.0256 20.4197 34.8931 18.7417 38.0177 18.7417C40.5359 18.7417 42.9096 19.8292 44.5355 21.7258C44.6712 21.8848 44.9109 21.9046 45.0726 21.7712C45.2343 21.6378 45.2545 21.4021 45.1188 21.2431C43.3515 19.1761 40.764 17.9922 38.0177 17.9922Z" fill="#F4B629"/>
<path d="M27.5466 21.9757C27.4513 22.1602 27.5293 22.3873 27.717 22.4782C27.7719 22.5038 27.8296 22.518 27.8874 22.518C28.026 22.518 28.1617 22.4413 28.2281 22.3107C30.0936 18.6396 33.8449 16.3597 38.0177 16.3597C40.045 16.3597 42.0231 16.9076 43.7413 17.9468C43.9204 18.0547 44.1572 18.0007 44.2669 17.8247C44.3766 17.6487 44.3218 17.4159 44.1427 17.308C42.3061 16.195 40.1865 15.6101 38.0177 15.6101C33.5561 15.6101 29.5421 18.049 27.5466 21.9757Z" fill="#DA0F16"/>
<path d="M25.0949 21.1722C25.0054 21.3596 25.0891 21.5839 25.2797 21.6719C25.3317 21.6974 25.3866 21.7088 25.4414 21.7088C25.5858 21.7088 25.7215 21.6293 25.788 21.493C28 16.848 32.8024 13.847 38.0177 13.847C39.4703 13.847 40.8998 14.0713 42.2628 14.517C42.4649 14.5823 42.6786 14.4744 42.7451 14.2785C42.8115 14.0826 42.7017 13.8697 42.5025 13.8044C41.0586 13.3359 39.5512 13.0974 38.0177 13.0974C32.5078 13.0974 27.434 16.2688 25.0978 21.1779L25.0949 21.1722Z" fill="#F4B629"/>
<path d="M23.2034 19.6191C23.1081 19.8036 23.1803 20.0279 23.368 20.1244C23.4229 20.1528 23.4835 20.167 23.5413 20.167C23.6799 20.167 23.8127 20.0932 23.8791 19.9626C26.6196 14.7356 32.0371 11.4875 38.0149 11.4875C38.7946 11.4875 39.5771 11.5443 40.3424 11.6522C40.5474 11.6862 40.7438 11.5414 40.7756 11.3342C40.8073 11.1298 40.663 10.9395 40.4522 10.9083C39.6522 10.7919 38.8321 10.7351 38.0149 10.7351C31.7512 10.7351 26.0738 14.1365 23.2034 19.6162V19.6191Z" fill="#DA0F16"/>
<path d="M20.5639 19.2443C20.4773 19.4317 20.5611 19.656 20.7517 19.7412C20.8036 19.7639 20.8585 19.7752 20.9105 19.7752C21.0549 19.7752 21.1935 19.6929 21.257 19.5566C24.2112 13.2365 30.6857 9.08837 37.755 8.99467C37.9658 8.99183 38.1333 8.82148 38.1304 8.61422C38.1275 8.40979 37.9571 8.24512 37.7492 8.24512H37.7434C30.3824 8.34449 23.6394 12.663 20.5611 19.2443H20.5639Z" fill="#F4B629"/>
<path d="M34.7863 6.87091C34.9942 6.83967 35.1357 6.64661 35.1039 6.44218C35.0722 6.23776 34.8758 6.09864 34.6679 6.12987C27.1654 7.27692 20.7574 12.3052 17.9418 19.2556C17.8638 19.4487 17.9591 19.6673 18.1555 19.744C18.2017 19.761 18.2508 19.7695 18.297 19.7695C18.4501 19.7695 18.5916 19.6815 18.6522 19.5339C21.3696 12.8304 27.5524 7.97821 34.7863 6.87091Z" fill="#DA0F16"/>
<path d="M31.1881 5.23549C31.3903 5.17587 31.5029 4.96577 31.4423 4.76702C31.3816 4.56828 31.1679 4.45471 30.9658 4.51717C24.5173 6.46204 19.1605 11.0218 16.2756 17.0325C16.1861 17.2199 16.2669 17.4442 16.4575 17.5322C16.5095 17.5577 16.5644 17.5691 16.6192 17.5691C16.7636 17.5691 16.8994 17.4896 16.9658 17.3533C19.7612 11.5329 24.9447 7.1179 31.191 5.23549H31.1881Z" fill="#F4B629"/>
<path d="M26.9171 4.2617C27.1077 4.17368 27.1885 3.94938 27.0961 3.762C27.0037 3.57461 26.7785 3.49511 26.5879 3.58596C21.2686 6.08732 16.8907 10.3263 14.2628 15.5192C14.1675 15.7038 14.2455 15.9309 14.4332 16.0218C14.488 16.0473 14.5458 16.0615 14.6035 16.0615C14.745 16.0615 14.8779 15.9849 14.9443 15.8543C17.4971 10.8118 21.7479 6.69492 26.9142 4.26454L26.9171 4.2617Z" fill="#DA0F16"/>
<path d="M21.9327 4.27587C22.106 4.15662 22.1493 3.9238 22.028 3.75345C21.9067 3.58309 21.6699 3.5405 21.4967 3.65975C17.422 6.43936 14.1213 10.2155 11.9439 14.5794C11.8515 14.7668 11.9294 14.9911 12.1171 15.082C12.172 15.1075 12.2298 15.1189 12.2846 15.1189C12.4261 15.1189 12.5619 15.0422 12.6283 14.9088C14.7479 10.6585 17.962 6.97881 21.9298 4.27303L21.9327 4.27587Z" fill="#F4B629"/>
<path d="M16.3304 5.26112C16.1803 5.11348 15.9406 5.11348 15.7904 5.26112C13.1279 7.87889 10.9851 10.9083 9.41997 14.2672C9.33333 14.4545 9.41708 14.6788 9.60767 14.764C9.65965 14.7867 9.71163 14.7981 9.7665 14.7981C9.91089 14.7981 10.0495 14.7158 10.113 14.5795C11.6378 11.303 13.7285 8.34736 16.3276 5.79206C16.4777 5.64442 16.4777 5.40876 16.3276 5.26112H16.3304Z" fill="#DA0F16"/>
<path d="M9.29578 10.1956C9.11385 10.0906 8.87994 10.1502 8.77309 10.3291C7.9443 11.726 7.2108 13.191 6.59859 14.6845C6.52062 14.8775 6.61592 15.0961 6.8094 15.1728C6.8556 15.1898 6.9047 15.2012 6.9509 15.2012C7.10106 15.2012 7.24545 15.1132 7.3061 14.9655C7.90387 13.5033 8.62004 12.0724 9.43151 10.7067C9.53836 10.5278 9.47771 10.2979 9.29578 10.1928V10.1956Z" fill="#F4B629"/>
<path d="M38.0177 20.4539C34.2838 20.4539 31.2458 23.4407 31.2458 27.1118C31.2458 27.3191 31.4162 27.4866 31.627 27.4866C31.8378 27.4866 32.0082 27.3191 32.0082 27.1118C32.0082 23.8524 34.7054 21.2034 38.0177 21.2034C41.33 21.2034 44.0272 23.8553 44.0272 27.1118C44.0272 27.5974 43.9666 28.0772 43.8511 28.5428C43.184 31.1805 40.7842 33.0231 38.0177 33.0231C37.8069 33.0231 37.6365 33.1906 37.6365 33.3979C37.6365 33.6052 37.8069 33.7727 38.0177 33.7727C41.1365 33.7727 43.8395 31.6972 44.5932 28.7245C44.726 28.2021 44.7925 27.6598 44.7925 27.1147C44.7925 23.4436 41.7545 20.4567 38.0206 20.4567L38.0177 20.4539Z" fill="#DA0F16"/>
</g>
<defs>
<linearGradient id="paint0_linear_710_912" x1="119.095" y1="41.0126" x2="124.368" y2="41.0126" gradientUnits="userSpaceOnUse">
<stop stop-color="#077B92"/>
<stop offset="0.1" stop-color="#168698"/>
<stop offset="0.34" stop-color="#349CA5"/>
<stop offset="0.57" stop-color="#4AACAF"/>
<stop offset="0.79" stop-color="#57B5B5"/>
<stop offset="1" stop-color="#5CB9B7"/>
</linearGradient>
<linearGradient id="paint1_linear_710_912" x1="7.15594" y1="40.9587" x2="41.0741" y2="6.45754" gradientUnits="userSpaceOnUse">
<stop stop-color="#2792A0"/>
<stop offset="1" stop-color="#5CB9B7"/>
</linearGradient>
<linearGradient id="paint2_linear_710_912" x1="18.6118" y1="29.352" x2="40.3973" y2="29.352" gradientUnits="userSpaceOnUse">
<stop stop-color="#077B92"/>
<stop offset="0.02" stop-color="#0A7D93"/>
<stop offset="0.18" stop-color="#2792A0"/>
<stop offset="0.35" stop-color="#3EA3AA"/>
<stop offset="0.53" stop-color="#4FAFB1"/>
<stop offset="0.73" stop-color="#58B6B5"/>
<stop offset="1" stop-color="#5CB9B7"/>
</linearGradient>
<linearGradient id="paint3_linear_710_912" x1="25.7071" y1="29.315" x2="37.0792" y2="29.315" gradientUnits="userSpaceOnUse">
<stop stop-color="#077B92"/>
<stop offset="0.02" stop-color="#0A7D93"/>
<stop offset="0.18" stop-color="#2792A0"/>
<stop offset="0.35" stop-color="#3EA3AA"/>
<stop offset="0.53" stop-color="#4FAFB1"/>
<stop offset="0.73" stop-color="#58B6B5"/>
<stop offset="1" stop-color="#5CB9B7"/>
</linearGradient>
<clipPath id="clip0_710_912">
<rect width="161" height="48" fill="white"/>
</clipPath>
</defs>
</svg>
