<svg width="24" height="36" viewBox="0 0 24 36" fill="none" xmlns="http://www.w3.org/2000/svg">
<g clip-path="url(#clip0_723_690)">
<g clip-path="url(#clip1_723_690)">
<path d="M22.5543 22.006V15.6091C22.5543 15.1919 22.4184 14.7853 22.1667 14.4451L9.44385 19.241L19.7731 29.2339C21.5697 27.2299 22.5561 24.6744 22.5561 22.0042L22.5543 22.006Z" fill="white"/>
<path d="M21.7497 14.0259C21.3915 13.7555 20.958 13.6086 20.5024 13.6086H18.7536C16.7329 15.2186 14.2935 16.1105 11.6794 16.1946L11.3341 16.6209L9.78369 18.5371L21.7479 14.0259H21.7497Z" fill="white"/>
<path d="M9.78552 18.5352L21.7515 14.0259H21.7497L9.78552 18.5352Z" fill="white"/>
<path d="M9.59814 16.0872L9.33545 18.2254L10.4303 16.8716L10.974 16.2C10.5166 16.1874 10.0555 16.1498 9.59814 16.0872Z" fill="white"/>
<path d="M10.974 16.2L10.4303 16.8715L10.974 16.2Z" fill="white"/>
<path d="M4.61998 20.2168L0 21.0729V22.0059C0 25.0485 1.2969 27.9515 3.5729 30.0289L6.18875 24.4128L8.47577 19.5005L4.62181 20.215L4.61998 20.2168Z" fill="white"/>
<path d="M3.57288 30.0289L6.18688 24.4128L3.57288 30.0289Z" fill="white"/>
<path d="M8.80458 20.0933L4.00275 30.4032C5.16004 31.3577 6.47347 32.0615 7.91365 32.5003L8.21492 32.2728L10.3256 30.6772L8.80275 20.0933H8.80458Z" fill="white"/>
<path d="M10.8712 30.5877L15.842 32.0598C17.183 31.4795 18.3789 30.6647 19.3984 29.6332L9.33179 19.8945L10.8712 30.5877Z" fill="white"/>
<path d="M8.57678 32.6795C9.1095 32.8067 9.65325 32.898 10.197 32.9482C10.5644 32.9822 10.9281 33.0001 11.2771 33.0001C12.2893 33.0001 13.2978 32.8658 14.2787 32.6025C14.5286 32.5363 14.7747 32.4611 15.019 32.3769L10.6783 31.0911L8.57678 32.6795Z" fill="white"/>
<path d="M0 20.5268L6.83904 19.2589L0 18.7646V20.5268Z" fill="white"/>
<path d="M19.5674 4.31965C21.4889 6.19288 21.9224 9.02242 20.6457 11.3595C20.6108 11.4222 20.5759 11.4848 20.5392 11.5457C20.462 11.6765 20.3793 11.8036 20.293 11.9272H20.4583C21.3437 11.9272 22.1832 12.2245 22.8574 12.7689C23.3718 11.8878 23.7153 10.9279 23.8843 9.91426L23.9026 9.80681C24.3141 7.09726 23.414 4.43605 21.4319 2.50372C21.3548 2.42851 21.2739 2.35329 21.1821 2.27271L20.1773 3.51376L19.5435 4.29637C19.5435 4.29637 19.5601 4.31248 19.5674 4.31965Z" fill="white"/>
<path d="M12.5042 0.418936L12.1405 3.37742C13.0921 2.83838 14.1575 2.57154 15.2211 2.57154C16.6172 2.57154 18.0096 3.03 19.132 3.93438L20.7632 1.91967C18.4615 0.0894196 15.3368 -0.480071 12.5042 0.418936Z" fill="white"/>
<path d="M6.03815 5.96352C6.03815 6.66733 6.62598 7.2404 7.34791 7.2404C7.7006 7.2404 8.03126 7.10609 8.27925 6.86074L10.8859 4.31773C11.0861 4.12253 11.3047 3.93807 11.5362 3.76794L11.922 0.625C10.8363 1.05301 9.86455 1.68339 9.02506 2.50181L6.42207 5.05915C6.17408 5.30091 6.03815 5.62147 6.03815 5.96352Z" fill="white"/>
<path d="M0.661309 14.1637L0.64845 14.1548C0.235132 14.5344 0 15.0538 0 15.6072V18.2236L7.90448 18.7949L0.661309 14.1637Z" fill="white"/>
<path d="M3.80071 13.6086H2.05191C1.72861 13.6086 1.41632 13.6821 1.13159 13.8235L7.38647 17.8243L8.72378 18.6803L9.0526 15.9994C7.1293 15.6413 5.31988 14.8193 3.79887 13.6086H3.80071Z" fill="white"/>
<path d="M8.72379 18.6785L7.38647 17.8225L8.72379 18.6785Z" fill="white"/>
<path d="M4.75594 9.37148C5.23906 9.37148 5.63401 8.98823 5.63401 8.51545C5.63401 8.04267 5.2409 7.65942 4.75594 7.65942C4.27098 7.65942 3.87787 8.04267 3.87787 8.51545C3.87787 8.98823 4.27098 9.37148 4.75594 9.37148Z" fill="white"/>
</g>
</g>
<defs>
<clipPath id="clip0_723_690">
<rect width="24" height="36" fill="white"/>
</clipPath>
<clipPath id="clip1_723_690">
<rect width="24" height="33" fill="white"/>
</clipPath>
</defs>
</svg>
