<svg width="429" height="268" viewBox="0 0 429 268" fill="none" xmlns="http://www.w3.org/2000/svg">
<path d="M2.7104 134.309C2.62928 134.2 2.55264 134.097 2.48049 134C2.55264 133.903 2.62928 133.8 2.7104 133.691C3.43467 132.72 4.51554 131.292 5.93503 129.472C8.77416 125.831 12.967 120.623 18.3699 114.37C29.178 101.861 44.8157 85.185 64.1325 68.5141C102.828 35.1188 155.992 2 214.5 2C273.009 2 326.172 35.1188 364.868 68.5141C384.185 85.185 399.822 101.861 410.63 114.37C416.033 120.623 420.226 125.831 423.065 129.472C424.484 131.292 425.565 132.72 426.29 133.691C426.371 133.8 426.447 133.903 426.52 134C426.447 134.097 426.371 134.2 426.29 134.309C425.565 135.28 424.484 136.708 423.065 138.528C420.226 142.169 416.033 147.377 410.63 153.63C399.822 166.139 384.185 182.815 364.868 199.486C326.172 232.881 273.009 266 214.5 266C155.992 266 102.828 232.881 64.1325 199.486C44.8157 182.815 29.178 166.139 18.3699 153.63C12.967 147.377 8.77416 142.169 5.93503 138.528C4.51554 136.708 3.43467 135.28 2.7104 134.309ZM214.5 233.494C269.666 233.494 314.399 188.956 314.399 134C314.399 79.0435 269.666 34.5059 214.5 34.5059C159.334 34.5059 114.6 79.0435 114.6 134C114.6 188.956 159.334 233.494 214.5 233.494ZM268.6 134C268.6 163.742 244.387 187.867 214.5 187.867C184.613 187.867 160.4 163.742 160.4 134C160.4 104.258 184.613 80.1331 214.5 80.1331C244.387 80.1331 268.6 104.258 268.6 134Z" stroke="url(#paint0_linear_77_2140)" stroke-width="4"/>
<defs>
<linearGradient id="paint0_linear_77_2140" x1="62.8807" y1="228.686" x2="233.09" y2="-43.7993" gradientUnits="userSpaceOnUse">
<stop stop-color="#2792A0"/>
<stop offset="1" stop-color="#5CB9B7"/>
</linearGradient>
</defs>
</svg>
