<svg width="442" height="308" viewBox="0 0 442 308" fill="none" xmlns="http://www.w3.org/2000/svg">
<path d="M513.75 54.0587C485.499 54.0448 460.351 65.5839 436.783 83.5666C413.24 101.531 391.137 126.032 368.966 152.144L367.866 153.439L368.966 154.733C391.525 181.293 413.827 206.08 437.37 224.222C460.935 242.381 485.891 253.998 513.749 253.998C569.205 253.998 614.333 209.186 614.333 154.027C614.333 98.8993 569.206 54.0587 513.75 54.0587ZM513.75 54.0587L513.749 56.0587M513.75 54.0587L513.749 56.0587M513.749 56.0587C458.416 56.0315 414.828 101.22 370.49 153.439C415.607 206.556 459.223 251.998 513.749 251.998C568.112 251.998 612.333 208.069 612.333 154.027C612.333 100.015 568.112 56.0587 513.749 56.0587ZM335.519 195.309L334.002 193.538L332.483 195.307C282.181 253.894 229.005 306 154.252 306C70.2952 306 2 237.808 2 154C2 70.1923 70.2952 2 154.252 2C229.287 2 284.273 55.5615 332.484 111.545L334 113.304L335.515 111.545C383.7 55.6184 438.74 2 513.749 2C597.712 2 666 70.1922 666 154C666 237.807 597.677 306 513.749 306C438.746 306 385.405 253.538 335.519 195.309ZM299.036 154.677L300.134 153.381L299.033 152.088C276.835 126.004 254.726 101.517 231.186 83.5563C207.623 65.5775 182.489 54.0315 154.252 54.0315C98.8009 54.0315 53.6667 98.8692 53.6667 154C53.6667 209.158 98.8013 253.969 154.252 253.969C182.251 253.969 207.312 242.25 230.893 224.038C254.453 205.843 276.686 181.05 299.036 154.677Z" stroke="url(#paint0_linear_73_920)" stroke-width="4"/>
<defs>
<linearGradient id="paint0_linear_73_920" x1="97.9122" y1="262.818" x2="263.44" y2="-96.2133" gradientUnits="userSpaceOnUse">
<stop stop-color="#2792A0"/>
<stop offset="1" stop-color="#5CB9B7"/>
</linearGradient>
</defs>
</svg>
