<svg width="349" height="168" viewBox="0 0 349 168" fill="none" xmlns="http://www.w3.org/2000/svg">
<path d="M172.961 25.2825L174.5 27.1381L176.039 25.2825C191.187 7.02236 209.25 0.995305 227.936 2.1329C246.746 3.2781 266.282 11.7 284.077 22.5813C301.844 33.4456 317.708 46.6572 329.145 57.1722C334.858 62.4258 339.457 66.9971 342.625 70.252C344.208 71.8792 345.434 73.1769 346.261 74.0657C346.325 74.1345 346.387 74.2008 346.446 74.2646C345.98 74.9221 345.331 75.8197 344.502 76.9269C342.604 79.4616 339.76 83.0937 335.995 87.4575C328.464 96.1872 317.258 107.833 302.574 119.478C273.203 142.772 230.004 166 174.5 166C118.997 166 75.7972 142.772 46.4258 119.478C31.7425 107.833 20.5361 96.1872 13.0048 87.4575C9.24008 83.0937 6.39618 79.4616 4.49777 76.9269C3.66854 75.8197 3.01987 74.9221 2.55381 74.2646C2.61306 74.2008 2.67472 74.1345 2.73877 74.0657C3.56632 73.1769 4.79165 71.8792 6.37523 70.252C9.54276 66.9971 14.1415 62.4258 19.8554 57.1722C31.2917 46.6572 47.1557 33.4456 64.923 22.5813C82.7179 11.7 102.254 3.2781 121.064 2.1329C139.75 0.995305 157.813 7.02236 172.961 25.2825Z" stroke="url(#paint0_linear_87_1042)" stroke-width="4"/>
<defs>
<linearGradient id="paint0_linear_87_1042" x1="51.1547" y1="143.356" x2="143.953" y2="-49.439" gradientUnits="userSpaceOnUse">
<stop stop-color="#2792A0"/>
<stop offset="1" stop-color="#5CB9B7"/>
</linearGradient>
</defs>
</svg>
