<svg width="317" height="317" viewBox="0 0 317 317" fill="none" xmlns="http://www.w3.org/2000/svg">
<path d="M277.963 209.763C299.476 202.658 315 182.393 315 158.5C315 134.607 299.476 114.342 277.963 107.237C299.476 100.133 315 79.8684 315 55.9747C315 26.1653 290.834 2 261.025 2C237.132 2 216.868 17.5242 209.763 39.0363C202.658 17.5242 182.393 2 158.5 2C134.607 2 114.342 17.5242 107.237 39.0363C100.133 17.5242 79.8684 2 55.9747 2C26.1653 2 2 26.1653 2 55.9747C2 79.8684 17.5242 100.133 39.0363 107.237C17.5242 114.342 2 134.607 2 158.5C2 182.393 17.5242 202.658 39.0363 209.763C17.5242 216.868 2 237.132 2 261.025C2 290.834 26.1653 315 55.9747 315C79.8684 315 100.133 299.476 107.237 277.963C114.342 299.476 134.607 315 158.5 315C182.393 315 202.658 299.476 209.763 277.963C216.868 299.476 237.132 315 261.025 315C290.834 315 315 290.834 315 261.025C315 237.132 299.476 216.868 277.963 209.763ZM107.237 141.562C101.892 125.376 89.0987 112.583 72.9135 107.237C89.0987 101.892 101.892 89.0987 107.237 72.9135C112.583 89.0987 125.376 101.892 141.562 107.237C125.376 112.583 112.583 125.376 107.237 141.562ZM209.763 141.562C204.417 125.376 191.624 112.583 175.438 107.237C191.624 101.892 204.417 89.0987 209.763 72.9134C215.108 89.0987 227.902 101.892 244.087 107.237C227.902 112.583 215.108 125.376 209.763 141.562ZM209.763 175.438C215.108 191.624 227.902 204.417 244.087 209.763C227.902 215.108 215.108 227.902 209.763 244.087C204.417 227.902 191.624 215.108 175.438 209.763C191.624 204.417 204.417 191.624 209.763 175.438ZM107.237 175.438C112.583 191.624 125.376 204.417 141.562 209.763C125.376 215.108 112.583 227.902 107.237 244.087C101.892 227.902 89.0987 215.108 72.9134 209.763C89.0987 204.417 101.892 191.624 107.237 175.438Z" stroke="url(#paint0_linear_87_1041)" stroke-width="4"/>
<defs>
<linearGradient id="paint0_linear_87_1041" x1="49.2917" y1="267.672" x2="267.672" y2="49.2735" gradientUnits="userSpaceOnUse">
<stop stop-color="#2792A0"/>
<stop offset="1" stop-color="#5CB9B7"/>
</linearGradient>
</defs>
</svg>
