<svg width="49" height="48" viewBox="0 0 49 48" fill="none" xmlns="http://www.w3.org/2000/svg">
<path d="M24.4105 0C19.2847 0 14.3783 1.54454 10.2199 4.46895C3.82054 8.97196 0 16.2716 0 24C0 37.2336 10.9505 48 24.4105 48C37.8705 48 48.821 37.2336 48.821 24C48.821 10.7664 37.8705 0 24.4105 0ZM32.2595 38.4062C24.1708 38.4062 17.6097 31.9612 17.6068 24.0057C17.6068 24.0028 17.6068 24 17.6068 23.9972C17.6068 23.9943 17.6068 23.9915 17.6068 23.9886C17.604 19.7298 14.0895 16.2773 9.75784 16.2773C5.42616 16.2773 1.93193 19.7128 1.91172 23.9574C1.91172 23.9574 1.91172 23.983 1.91172 23.9972C1.91172 16.5754 5.63119 10.0054 11.3346 5.99077C15.0194 3.39856 19.5359 1.87105 24.4134 1.87105C36.8424 1.87105 46.9179 11.7771 46.9179 23.9972C46.9179 24.2499 46.9063 24.4969 46.8977 24.7467C46.5021 32.353 40.0998 38.4034 32.2653 38.4034L32.2595 38.4062Z" fill="url(#paint0_linear_710_1305)"/>
<path d="M25.7678 29.3605C25.0834 28.0601 24.6416 26.6178 24.5087 25.0903L24.4423 24.0568C24.4279 22.4924 23.1226 21.2204 21.5343 21.2204C19.946 21.2204 18.6783 22.4526 18.6263 23.983L18.6147 24.1363C18.6523 31.5012 24.76 37.4835 32.2595 37.4835C35.1907 37.4835 37.8994 36.5835 40.1201 35.0503C40.2154 34.985 40.3078 34.9225 40.4002 34.8544C39.0949 35.3484 37.6742 35.6181 36.1956 35.6181C31.6618 35.6181 27.7199 33.0742 25.7678 29.3605Z" fill="url(#paint1_linear_710_1305)"/>
<path d="M29.6661 26.0017C29.6661 25.9846 29.6719 25.9676 29.6719 25.9506C29.6719 24.8745 28.7854 24 27.688 24C26.5907 24 25.7041 24.8716 25.7041 25.9506C25.7041 26.0783 25.7532 26.3594 25.7561 26.3793C26.7928 31.0981 31.0609 34.6329 36.1694 34.6329C36.4756 34.6329 36.7788 34.6159 37.0791 34.5932C32.9062 34.19 29.6488 30.729 29.6488 26.5212C29.6488 26.3452 29.6604 26.172 29.6748 26.0017C29.6748 26.0017 29.669 26.0017 29.6661 26.0017Z" fill="url(#paint2_linear_710_1305)"/>
<path d="M39.3723 27.1146C39.3723 26.3793 38.763 25.783 38.0179 25.783C37.2729 25.783 36.6636 26.3793 36.6636 27.1146C36.6636 27.85 37.2729 28.4462 38.0179 28.4462C38.763 28.4462 39.3723 27.85 39.3723 27.1146Z" fill="#F4B629"/>
<path d="M42.104 27.1146C42.104 24.8944 40.2731 23.0943 38.0149 23.0943C35.7566 23.0943 33.9258 24.8944 33.9258 27.1146C33.9258 29.3349 35.7566 31.135 38.0149 31.135C40.2731 31.135 42.104 29.3349 42.104 27.1146ZM35.8981 27.1146C35.8981 25.9676 36.8482 25.0335 38.0149 25.0335C39.1816 25.0335 40.1316 25.9676 40.1316 27.1146C40.1316 28.2617 39.1816 29.1958 38.0149 29.1958C36.8482 29.1958 35.8981 28.2617 35.8981 27.1146Z" fill="#DA0F16"/>
<path d="M38.0175 17.9922C34.6128 17.9922 31.4883 19.8207 29.8624 22.7649C29.7614 22.9466 29.8307 23.1738 30.0155 23.2732C30.0732 23.3044 30.1368 23.3186 30.1974 23.3186C30.3331 23.3186 30.4631 23.2476 30.5324 23.1227C32.0254 20.4197 34.893 18.7417 38.0175 18.7417C40.5357 18.7417 42.9095 19.8292 44.5353 21.7258C44.671 21.8848 44.9107 21.9046 45.0724 21.7712C45.2341 21.6378 45.2543 21.4021 45.1186 21.2431C43.3513 19.1761 40.7638 17.9922 38.0175 17.9922Z" fill="#F4B629"/>
<path d="M27.5466 21.9756C27.4513 22.1602 27.5293 22.3873 27.717 22.4782C27.7719 22.5037 27.8296 22.5179 27.8874 22.5179C28.026 22.5179 28.1617 22.4413 28.2281 22.3107C30.0936 18.6395 33.8449 16.3596 38.0177 16.3596C40.045 16.3596 42.0231 16.9076 43.7413 17.9468C43.9204 18.0547 44.1572 18.0007 44.2669 17.8247C44.3766 17.6486 44.3218 17.4158 44.1427 17.3079C42.3061 16.195 40.1865 15.6101 38.0177 15.6101C33.5561 15.6101 29.5421 18.049 27.5466 21.9756Z" fill="#DA0F16"/>
<path d="M25.095 21.1721C25.0055 21.3595 25.0892 21.5838 25.2798 21.6718C25.3318 21.6974 25.3867 21.7087 25.4415 21.7087C25.5859 21.7087 25.7217 21.6292 25.7881 21.4929C28.0001 16.848 32.8025 13.8469 38.0179 13.8469C39.4704 13.8469 40.8999 14.0712 42.2629 14.517C42.4651 14.5823 42.6788 14.4744 42.7452 14.2785C42.8116 14.0826 42.7019 13.8696 42.5026 13.8043C41.0587 13.3358 39.5513 13.0974 38.0179 13.0974C32.508 13.0974 27.4341 16.2688 25.0979 21.1778L25.095 21.1721Z" fill="#F4B629"/>
<path d="M23.2036 19.6191C23.1083 19.8036 23.1805 20.0279 23.3682 20.1245C23.423 20.1529 23.4837 20.1671 23.5414 20.1671C23.6801 20.1671 23.8129 20.0932 23.8793 19.9626C26.6198 14.7356 32.0373 11.4875 38.015 11.4875C38.7947 11.4875 39.5773 11.5443 40.3426 11.6522C40.5476 11.6863 40.744 11.5415 40.7758 11.3342C40.8075 11.1298 40.6631 10.9396 40.4523 10.9083C39.6524 10.7919 38.8323 10.7351 38.015 10.7351C31.7514 10.7351 26.074 14.1365 23.2036 19.6162V19.6191Z" fill="#DA0F16"/>
<path d="M20.5639 19.2443C20.4773 19.4317 20.5611 19.656 20.7517 19.7412C20.8036 19.7639 20.8585 19.7752 20.9105 19.7752C21.0549 19.7752 21.1935 19.6929 21.257 19.5566C24.2112 13.2365 30.6857 9.08837 37.755 8.99467C37.9658 8.99183 38.1333 8.82148 38.1304 8.61422C38.1275 8.40979 37.9571 8.24512 37.7492 8.24512H37.7434C30.3824 8.34449 23.6394 12.663 20.5611 19.2443H20.5639Z" fill="#F4B629"/>
<path d="M34.7862 6.87094C34.9941 6.8397 35.1356 6.64664 35.1039 6.44221C35.0721 6.23779 34.8757 6.09867 34.6678 6.1299C27.1653 7.27695 20.7573 12.3052 17.9418 19.2557C17.8638 19.4487 17.9591 19.6673 18.1554 19.744C18.2017 19.761 18.2507 19.7696 18.2969 19.7696C18.45 19.7696 18.5915 19.6815 18.6521 19.5339C21.3696 12.8305 27.5523 7.97824 34.7862 6.87094Z" fill="#DA0F16"/>
<path d="M31.1883 5.23552C31.3904 5.1759 31.503 4.9658 31.4424 4.76705C31.3817 4.56831 31.168 4.45474 30.9659 4.5172C24.5175 6.46207 19.1606 11.0219 16.2757 17.0325C16.1862 17.2199 16.2671 17.4442 16.4577 17.5322C16.5096 17.5578 16.5645 17.5691 16.6194 17.5691C16.7638 17.5691 16.8995 17.4896 16.9659 17.3534C19.7613 11.5329 24.9449 7.11793 31.1911 5.23552H31.1883Z" fill="#F4B629"/>
<path d="M26.9172 4.26167C27.1078 4.17365 27.1887 3.94935 27.0962 3.76196C27.0038 3.57458 26.7786 3.49508 26.588 3.58593C21.2687 6.08729 16.8908 10.3263 14.2629 15.5192C14.1676 15.7038 14.2456 15.9309 14.4333 16.0218C14.4882 16.0473 14.5459 16.0615 14.6037 16.0615C14.7452 16.0615 14.878 15.9848 14.9444 15.8542C17.4972 10.8118 21.7481 6.69489 26.9143 4.26451L26.9172 4.26167Z" fill="#DA0F16"/>
<path d="M21.9325 4.27587C22.1058 4.15662 22.1491 3.9238 22.0278 3.75345C21.9066 3.58309 21.6698 3.5405 21.4965 3.65975C17.4218 6.43936 14.1211 10.2155 11.9437 14.5794C11.8513 14.7668 11.9292 14.9911 12.1169 15.082C12.1718 15.1075 12.2296 15.1189 12.2844 15.1189C12.4259 15.1189 12.5617 15.0422 12.6281 14.9088C14.7477 10.6585 17.9618 6.97881 21.9297 4.27303L21.9325 4.27587Z" fill="#F4B629"/>
<path d="M16.3304 5.26109C16.1802 5.11345 15.9405 5.11345 15.7904 5.26109C13.1278 7.87886 10.9851 10.9083 9.41991 14.2671C9.33327 14.4545 9.41702 14.6788 9.60761 14.764C9.65959 14.7867 9.71157 14.7981 9.76644 14.7981C9.91083 14.7981 10.0494 14.7157 10.113 14.5794C11.6377 11.303 13.7285 8.34733 16.3275 5.79203C16.4777 5.64439 16.4777 5.40873 16.3275 5.26109H16.3304Z" fill="#DA0F16"/>
<path d="M9.29572 10.1957C9.11379 10.0906 8.87988 10.1502 8.77303 10.3291C7.94424 11.726 7.21074 13.1911 6.59853 14.6845C6.52056 14.8776 6.61586 15.0962 6.80934 15.1728C6.85554 15.1899 6.90463 15.2012 6.95084 15.2012C7.101 15.2012 7.24539 15.1132 7.30604 14.9656C7.90381 13.5034 8.61998 12.0724 9.43145 10.7067C9.5383 10.5279 9.47765 10.2979 9.29572 10.1928V10.1957Z" fill="#F4B629"/>
<path d="M38.018 20.4538C34.284 20.4538 31.2461 23.4407 31.2461 27.1118C31.2461 27.3191 31.4165 27.4866 31.6273 27.4866C31.8381 27.4866 32.0085 27.3191 32.0085 27.1118C32.0085 23.8524 34.7057 21.2034 38.018 21.2034C41.3303 21.2034 44.0274 23.8552 44.0274 27.1118C44.0274 27.5973 43.9668 28.0771 43.8513 28.5428C43.1842 31.1804 40.7845 33.0231 38.018 33.0231C37.8071 33.0231 37.6368 33.1906 37.6368 33.3978C37.6368 33.6051 37.8071 33.7726 38.018 33.7726C41.1368 33.7726 43.8397 31.6971 44.5935 28.7245C44.7263 28.2021 44.7927 27.6598 44.7927 27.1146C44.7927 23.4435 41.7548 20.4566 38.0208 20.4566L38.018 20.4538Z" fill="#DA0F16"/>
<defs>
<linearGradient id="paint0_linear_710_1305" x1="7.15594" y1="40.9587" x2="41.0741" y2="6.45754" gradientUnits="userSpaceOnUse">
<stop stop-color="#2792A0"/>
<stop offset="1" stop-color="#5CB9B7"/>
</linearGradient>
<linearGradient id="paint1_linear_710_1305" x1="18.6119" y1="29.3519" x2="40.3973" y2="29.3519" gradientUnits="userSpaceOnUse">
<stop stop-color="#077B92"/>
<stop offset="0.02" stop-color="#0A7D93"/>
<stop offset="0.18" stop-color="#2792A0"/>
<stop offset="0.35" stop-color="#3EA3AA"/>
<stop offset="0.53" stop-color="#4FAFB1"/>
<stop offset="0.73" stop-color="#58B6B5"/>
<stop offset="1" stop-color="#5CB9B7"/>
</linearGradient>
<linearGradient id="paint2_linear_710_1305" x1="25.707" y1="29.315" x2="37.0791" y2="29.315" gradientUnits="userSpaceOnUse">
<stop stop-color="#077B92"/>
<stop offset="0.02" stop-color="#0A7D93"/>
<stop offset="0.18" stop-color="#2792A0"/>
<stop offset="0.35" stop-color="#3EA3AA"/>
<stop offset="0.53" stop-color="#4FAFB1"/>
<stop offset="0.73" stop-color="#58B6B5"/>
<stop offset="1" stop-color="#5CB9B7"/>
</linearGradient>
</defs>
</svg>
