<svg width="24" height="24" viewBox="0 0 24 24" fill="none" xmlns="http://www.w3.org/2000/svg">
<g clip-path="url(#clip0_28_71)">
<path d="M0 11.52C0 6.0894 0 3.37413 1.68707 1.68707C3.37413 0 6.0894 0 11.52 0H12.48C17.9106 0 20.6259 0 22.313 1.68707C24 3.37413 24 6.0894 24 11.52V12.48C24 17.9106 24 20.6259 22.313 22.313C20.6259 24 17.9106 24 12.48 24H11.52C6.0894 24 3.37413 24 1.68707 22.313C0 20.6259 0 17.9106 0 12.48V11.52Z" fill="black"/>
<path d="M12.7288 17.28C7.15288 17.28 3.97251 13.4962 3.84 7.19995H6.63305C6.72479 11.8212 8.78386 13.7787 10.4148 14.1823V7.19995H13.0449V11.1855C14.6555 11.014 16.3474 9.19779 16.9183 7.19995H19.5483C19.11 9.66193 17.2751 11.4781 15.9703 12.2248C17.2751 12.8302 19.3649 14.4144 20.16 17.28H17.2649C16.6431 15.3628 15.0938 13.8796 13.0449 13.6778V17.28H12.7288Z" fill="white"/>
</g>
<defs>
<clipPath id="clip0_28_71">
<rect width="24" height="24" fill="white"/>
</clipPath>
</defs>
</svg>
