<svg width="136" height="131" viewBox="0 0 136 131" fill="none" xmlns="http://www.w3.org/2000/svg">
<path d="M27.7467 125.595L27.7466 125.595C19.8061 119.844 18.0216 108.712 23.7577 100.772L23.8521 100.641L23.8587 100.628L37.462 81.9181L39.0815 79.6906L36.4623 78.8398L14.3717 71.6638C14.3386 71.6509 14.296 71.6352 14.2471 71.6194C4.94258 68.5525 -0.155692 58.5174 2.87575 49.2117L2.87576 49.2117C5.9017 39.9222 15.9148 34.7895 25.2442 37.7389C25.3028 37.7606 25.3636 37.7803 25.4264 37.7976C25.4406 37.8015 25.4564 37.8057 25.4738 37.8101L47.5176 44.9385L50.1306 45.7835L50.133 43.0372L50.1528 19.811C50.1528 19.8109 50.1528 19.8109 50.1528 19.8109C50.1618 9.99233 58.1679 2 68.0048 2C77.8423 2 85.8479 9.99305 85.8573 19.8012L85.8672 43.0463L85.8684 45.7938L88.4826 44.9484L110.627 37.7873L110.627 37.7873C119.994 34.7578 130.083 39.8937 133.124 49.2215L135.025 48.6016L133.124 49.2216C136.165 58.5473 131.027 68.6219 121.673 71.6592L122.29 73.5614L121.673 71.6592L99.5275 78.8496L96.9078 79.7002L98.5276 81.928L112.196 100.727L112.202 100.736L112.206 100.741L112.241 100.791C117.97 108.732 116.193 119.855 108.253 125.604L108.252 125.605C100.323 131.355 89.1795 129.623 83.3758 121.757C83.3592 121.734 83.3373 121.704 83.3113 121.671C83.3085 121.667 83.3057 121.663 83.3031 121.66L69.6109 102.879L67.9948 100.663L66.3787 102.879L52.6939 121.65L52.6791 121.665L52.59 121.785C49.1146 126.481 43.7093 128.988 38.2167 128.988C34.573 128.988 30.9071 127.884 27.7467 125.595ZM112.154 100.66L112.159 100.668C112.156 100.664 112.155 100.661 112.154 100.66Z" stroke="url(#paint0_linear_87_1044)" stroke-width="4"/>
<defs>
<linearGradient id="paint0_linear_87_1044" x1="19.9342" y1="111.783" x2="112.451" y2="15.7273" gradientUnits="userSpaceOnUse">
<stop stop-color="#2792A0"/>
<stop offset="1" stop-color="#5CB9B7"/>
</linearGradient>
</defs>
</svg>
