<svg width="387" height="336" viewBox="0 0 387 336" fill="none" xmlns="http://www.w3.org/2000/svg">
<path d="M236.96 302.595L236.96 302.595C231.113 306.986 219.973 314.92 210.271 321.772C205.425 325.195 200.946 328.342 197.678 330.634C196.044 331.779 194.713 332.711 193.791 333.356C193.689 333.428 193.592 333.496 193.5 333.56L193.209 333.356C192.287 332.711 190.956 331.779 189.322 330.634C186.054 328.342 181.575 325.195 176.729 321.772C167.027 314.92 155.887 306.986 150.041 302.595L150.04 302.595C128.984 286.785 103.283 266.519 79.6917 245.271C56.0711 223.996 34.6859 201.842 22.158 182.257L22.1572 182.256C3.47756 153.1 -2.59999 116.971 5.52364 83.3902L5.52698 83.3763L5.53013 83.3625C22.8228 7.15032 118.668 -24.0558 178.36 27.055L178.365 27.0593C181.703 29.8988 184.793 33.0566 188.04 36.3796C189.359 37.7301 190.705 39.1064 192.09 40.4831L193.5 41.8837L194.91 40.4831C196.295 39.1064 197.641 37.7304 198.96 36.3798C202.208 33.0567 205.297 29.8988 208.635 27.0593L208.64 27.055C268.332 -24.0558 364.177 7.15033 381.47 83.3624L381.473 83.3763L381.476 83.3902C389.6 116.971 383.522 153.1 364.843 182.256L364.842 182.257C352.314 201.842 330.929 223.996 307.308 245.271C283.717 266.519 258.016 286.785 236.96 302.595Z" stroke="url(#paint0_linear_87_1034)" stroke-width="4"/>
<defs>
<linearGradient id="paint0_linear_87_1034" x1="56.7246" y1="286.711" x2="291.832" y2="15.8948" gradientUnits="userSpaceOnUse">
<stop stop-color="#2792A0"/>
<stop offset="1" stop-color="#5CB9B7"/>
</linearGradient>
</defs>
</svg>
